<?xml version="1.0" encoding="UTF-8"?>
<svg xmlns="http://www.w3.org/2000/svg" xmlns:xlink="http://www.w3.org/1999/xlink" width="1920" height="1080" viewBox="0 0 1920 1080">
<defs>
<g>
<g id="glyph-0-0">
<path d="M 10.734375 -3.757812 C 10.601562 -3.742188 10.480469 -3.726562 10.378906 -3.710938 C 10.273438 -3.695312 10.144531 -3.660156 9.988281 -3.605469 C 9.808594 -3.550781 9.691406 -3.457031 9.636719 -3.328125 C 9.578125 -3.195312 9.550781 -3.058594 9.550781 -2.917969 L 9.550781 -1.84375 C 9.550781 -1.625 9.554688 -1.449219 9.558594 -1.316406 C 9.5625 -1.1875 9.566406 -1.023438 9.578125 -0.828125 C 9.144531 -0.566406 8.5 -0.320312 7.652344 -0.0898438 C 6.804688 0.140625 6.023438 0.253906 5.3125 0.253906 C 4.644531 0.253906 4.015625 0.152344 3.429688 -0.0507812 C 2.84375 -0.257812 2.332031 -0.5625 1.886719 -0.972656 C 1.445312 -1.375 1.097656 -1.875 0.84375 -2.476562 C 0.589844 -3.074219 0.460938 -3.761719 0.460938 -4.535156 C 0.460938 -5.253906 0.582031 -5.921875 0.820312 -6.535156 C 1.058594 -7.148438 1.402344 -7.675781 1.855469 -8.117188 C 2.296875 -8.554688 2.835938 -8.894531 3.472656 -9.132812 C 4.109375 -9.371094 4.8125 -9.492188 5.585938 -9.492188 C 6.109375 -9.492188 6.597656 -9.425781 7.042969 -9.296875 C 7.492188 -9.167969 7.859375 -9.027344 8.152344 -8.878906 L 8.554688 -9.238281 L 9.121094 -9.238281 L 9.179688 -5.867188 L 8.605469 -5.867188 C 8.277344 -6.878906 7.882812 -7.632812 7.421875 -8.125 C 6.960938 -8.613281 6.378906 -8.859375 5.675781 -8.859375 C 4.84375 -8.859375 4.199219 -8.496094 3.746094 -7.765625 C 3.292969 -7.035156 3.066406 -6.03125 3.066406 -4.75 C 3.066406 -3.390625 3.289062 -2.324219 3.734375 -1.558594 C 4.179688 -0.789062 4.808594 -0.402344 5.625 -0.402344 C 6.007812 -0.402344 6.347656 -0.460938 6.644531 -0.578125 C 6.941406 -0.691406 7.171875 -0.824219 7.335938 -0.976562 L 7.335938 -2.851562 C 7.335938 -3.007812 7.308594 -3.140625 7.253906 -3.246094 C 7.195312 -3.351562 7.082031 -3.445312 6.914062 -3.523438 C 6.785156 -3.582031 6.621094 -3.632812 6.425781 -3.671875 C 6.230469 -3.710938 6.066406 -3.738281 5.9375 -3.757812 L 5.9375 -4.265625 L 10.734375 -4.265625 Z "/>
</g>
<g id="glyph-0-1">
<path d="M 7.375 -1.554688 C 7.222656 -1.308594 7.039062 -1.074219 6.824219 -0.855469 C 6.609375 -0.636719 6.367188 -0.449219 6.09375 -0.292969 C 5.804688 -0.128906 5.507812 -0.00390625 5.210938 0.0820312 C 4.914062 0.164062 4.574219 0.207031 4.1875 0.207031 C 3.542969 0.207031 2.988281 0.117188 2.523438 -0.0664062 C 2.054688 -0.246094 1.671875 -0.492188 1.367188 -0.800781 C 1.0625 -1.109375 0.835938 -1.472656 0.6875 -1.890625 C 0.539062 -2.308594 0.460938 -2.765625 0.460938 -3.253906 C 0.460938 -3.699219 0.542969 -4.121094 0.707031 -4.527344 C 0.867188 -4.933594 1.101562 -5.296875 1.398438 -5.613281 C 1.695312 -5.921875 2.066406 -6.167969 2.515625 -6.359375 C 2.964844 -6.550781 3.46875 -6.648438 4.023438 -6.648438 C 4.632812 -6.648438 5.128906 -6.574219 5.519531 -6.425781 C 5.910156 -6.277344 6.234375 -6.074219 6.492188 -5.8125 C 6.738281 -5.566406 6.917969 -5.273438 7.03125 -4.9375 C 7.144531 -4.601562 7.199219 -4.25 7.199219 -3.878906 L 7.199219 -3.457031 L 2.800781 -3.457031 C 2.800781 -2.566406 2.972656 -1.890625 3.3125 -1.425781 C 3.65625 -0.960938 4.203125 -0.730469 4.949219 -0.730469 C 5.355469 -0.730469 5.722656 -0.839844 6.046875 -1.0625 C 6.375 -1.289062 6.652344 -1.570312 6.882812 -1.914062 L 7.375 -1.554688 M 4.890625 -4.03125 C 4.890625 -4.289062 4.875 -4.558594 4.851562 -4.832031 C 4.824219 -5.105469 4.777344 -5.328125 4.714844 -5.5 C 4.640625 -5.707031 4.539062 -5.859375 4.410156 -5.964844 C 4.28125 -6.066406 4.121094 -6.121094 3.925781 -6.121094 C 3.589844 -6.121094 3.324219 -5.949219 3.125 -5.613281 C 2.925781 -5.273438 2.816406 -4.738281 2.800781 -4.003906 Z "/>
</g>
<g id="glyph-0-2">
<path d="M 8.972656 0 L 5.058594 0 L 5.058594 -0.476562 C 5.140625 -0.484375 5.242188 -0.496094 5.359375 -0.507812 C 5.476562 -0.519531 5.5625 -0.542969 5.625 -0.574219 C 5.714844 -0.621094 5.78125 -0.691406 5.820312 -0.78125 C 5.859375 -0.871094 5.878906 -1.007812 5.878906 -1.183594 L 5.878906 -4.230469 C 5.878906 -4.675781 5.796875 -5.007812 5.632812 -5.230469 C 5.472656 -5.453125 5.230469 -5.566406 4.914062 -5.566406 C 4.738281 -5.566406 4.578125 -5.539062 4.425781 -5.488281 C 4.277344 -5.4375 4.128906 -5.359375 3.984375 -5.261719 C 3.859375 -5.171875 3.757812 -5.085938 3.683594 -4.992188 C 3.605469 -4.902344 3.542969 -4.820312 3.488281 -4.753906 L 3.488281 -1.257812 C 3.488281 -1.105469 3.511719 -0.976562 3.554688 -0.875 C 3.597656 -0.773438 3.667969 -0.695312 3.769531 -0.644531 C 3.839844 -0.605469 3.925781 -0.570312 4.03125 -0.539062 C 4.132812 -0.511719 4.234375 -0.488281 4.335938 -0.476562 L 4.335938 0 L 0.378906 0 L 0.378906 -0.476562 C 0.484375 -0.484375 0.59375 -0.496094 0.707031 -0.511719 C 0.816406 -0.527344 0.910156 -0.546875 0.988281 -0.574219 C 1.128906 -0.621094 1.222656 -0.695312 1.277344 -0.792969 C 1.328125 -0.894531 1.355469 -1.023438 1.355469 -1.183594 L 1.355469 -4.972656 C 1.355469 -5.109375 1.320312 -5.242188 1.25 -5.371094 C 1.179688 -5.5 1.089844 -5.609375 0.976562 -5.691406 C 0.898438 -5.742188 0.800781 -5.785156 0.679688 -5.820312 C 0.5625 -5.855469 0.429688 -5.878906 0.285156 -5.890625 L 0.285156 -6.367188 L 3.390625 -6.535156 L 3.488281 -6.4375 L 3.488281 -5.496094 L 3.515625 -5.496094 C 3.636719 -5.601562 3.785156 -5.734375 3.957031 -5.886719 C 4.132812 -6.039062 4.292969 -6.160156 4.441406 -6.257812 C 4.601562 -6.359375 4.8125 -6.449219 5.070312 -6.523438 C 5.332031 -6.597656 5.609375 -6.632812 5.90625 -6.632812 C 6.613281 -6.632812 7.144531 -6.433594 7.496094 -6.03125 C 7.851562 -5.628906 8.027344 -5.097656 8.027344 -4.433594 L 8.027344 -1.242188 C 8.027344 -1.082031 8.050781 -0.953125 8.097656 -0.859375 C 8.148438 -0.765625 8.234375 -0.6875 8.367188 -0.632812 C 8.433594 -0.601562 8.519531 -0.570312 8.625 -0.539062 C 8.726562 -0.511719 8.839844 -0.488281 8.972656 -0.476562 Z "/>
</g>
<g id="glyph-0-3">
<path d="M 6.863281 -5.265625 C 6.863281 -4.9375 6.761719 -4.648438 6.554688 -4.398438 C 6.351562 -4.148438 6.082031 -4.023438 5.75 -4.023438 C 5.433594 -4.023438 5.164062 -4.101562 4.945312 -4.261719 C 4.726562 -4.421875 4.617188 -4.660156 4.617188 -4.96875 C 4.617188 -5.121094 4.625 -5.238281 4.648438 -5.324219 C 4.671875 -5.40625 4.691406 -5.488281 4.707031 -5.558594 C 4.507812 -5.550781 4.296875 -5.484375 4.074219 -5.351562 C 3.855469 -5.222656 3.660156 -5.050781 3.488281 -4.835938 L 3.488281 -1.261719 C 3.488281 -1.109375 3.511719 -0.984375 3.5625 -0.886719 C 3.609375 -0.785156 3.6875 -0.707031 3.800781 -0.652344 C 3.898438 -0.601562 4.054688 -0.5625 4.265625 -0.53125 C 4.484375 -0.496094 4.636719 -0.480469 4.734375 -0.476562 L 4.734375 0 L 0.378906 0 L 0.378906 -0.476562 C 0.484375 -0.484375 0.59375 -0.496094 0.707031 -0.511719 C 0.816406 -0.527344 0.910156 -0.546875 0.988281 -0.574219 C 1.128906 -0.621094 1.222656 -0.695312 1.277344 -0.792969 C 1.328125 -0.894531 1.355469 -1.023438 1.355469 -1.183594 L 1.355469 -4.972656 C 1.355469 -5.128906 1.316406 -5.269531 1.242188 -5.394531 C 1.167969 -5.515625 1.082031 -5.617188 0.976562 -5.691406 C 0.898438 -5.742188 0.800781 -5.785156 0.679688 -5.820312 C 0.5625 -5.855469 0.429688 -5.878906 0.285156 -5.890625 L 0.285156 -6.367188 L 3.390625 -6.535156 L 3.488281 -6.4375 L 3.488281 -5.496094 L 3.515625 -5.496094 C 3.816406 -5.84375 4.132812 -6.113281 4.46875 -6.3125 C 4.804688 -6.507812 5.15625 -6.609375 5.519531 -6.609375 C 5.925781 -6.609375 6.25 -6.484375 6.492188 -6.234375 C 6.738281 -5.984375 6.863281 -5.660156 6.863281 -5.265625 Z "/>
</g>
<g id="glyph-0-4">
<path d="M 7.820312 -0.136719 C 7.628906 -0.0546875 7.402344 0.0234375 7.144531 0.0898438 C 6.882812 0.160156 6.609375 0.195312 6.316406 0.195312 C 5.785156 0.195312 5.394531 0.117188 5.140625 -0.0429688 C 4.890625 -0.199219 4.71875 -0.425781 4.628906 -0.722656 L 4.589844 -0.722656 C 4.441406 -0.574219 4.300781 -0.449219 4.164062 -0.34375 C 4.027344 -0.242188 3.878906 -0.152344 3.722656 -0.078125 C 3.519531 0.015625 3.320312 0.0898438 3.132812 0.136719 C 2.945312 0.183594 2.679688 0.207031 2.339844 0.207031 C 1.835938 0.207031 1.40625 0.0585938 1.050781 -0.238281 C 0.691406 -0.535156 0.515625 -0.929688 0.515625 -1.421875 C 0.515625 -1.703125 0.554688 -1.945312 0.632812 -2.140625 C 0.710938 -2.339844 0.820312 -2.515625 0.964844 -2.667969 C 1.09375 -2.804688 1.246094 -2.921875 1.417969 -3.011719 C 1.589844 -3.105469 1.777344 -3.1875 1.980469 -3.265625 C 2.371094 -3.410156 2.84375 -3.558594 3.390625 -3.714844 C 3.9375 -3.867188 4.335938 -4.007812 4.589844 -4.128906 L 4.589844 -4.753906 C 4.589844 -4.859375 4.582031 -5.003906 4.5625 -5.183594 C 4.546875 -5.359375 4.507812 -5.511719 4.453125 -5.632812 C 4.390625 -5.769531 4.296875 -5.886719 4.167969 -5.984375 C 4.035156 -6.078125 3.863281 -6.125 3.652344 -6.125 C 3.460938 -6.125 3.300781 -6.097656 3.171875 -6.042969 C 3.046875 -5.992188 2.941406 -5.933594 2.863281 -5.878906 C 2.878906 -5.792969 2.914062 -5.660156 2.976562 -5.480469 C 3.035156 -5.304688 3.066406 -5.132812 3.066406 -4.96875 C 3.066406 -4.894531 3.046875 -4.800781 3.007812 -4.691406 C 2.96875 -4.578125 2.910156 -4.492188 2.835938 -4.425781 C 2.738281 -4.339844 2.625 -4.273438 2.5 -4.226562 C 2.378906 -4.175781 2.1875 -4.152344 1.929688 -4.152344 C 1.566406 -4.152344 1.289062 -4.242188 1.101562 -4.417969 C 0.914062 -4.59375 0.820312 -4.820312 0.820312 -5.105469 C 0.820312 -5.347656 0.917969 -5.566406 1.109375 -5.757812 C 1.304688 -5.953125 1.539062 -6.109375 1.816406 -6.238281 C 2.089844 -6.367188 2.40625 -6.46875 2.761719 -6.539062 C 3.117188 -6.609375 3.445312 -6.648438 3.75 -6.648438 C 4.171875 -6.648438 4.558594 -6.621094 4.910156 -6.570312 C 5.261719 -6.523438 5.578125 -6.417969 5.859375 -6.261719 C 6.128906 -6.109375 6.34375 -5.890625 6.5 -5.601562 C 6.660156 -5.3125 6.738281 -4.9375 6.738281 -4.472656 C 6.738281 -3.980469 6.726562 -3.402344 6.707031 -2.726562 C 6.6875 -2.054688 6.679688 -1.613281 6.679688 -1.398438 C 6.679688 -1.203125 6.707031 -1.050781 6.765625 -0.9375 C 6.824219 -0.824219 6.917969 -0.738281 7.039062 -0.683594 C 7.113281 -0.648438 7.226562 -0.628906 7.386719 -0.621094 C 7.542969 -0.617188 7.6875 -0.613281 7.820312 -0.613281 L 7.820312 -0.136719 M 4.589844 -3.527344 C 4.347656 -3.445312 4.105469 -3.351562 3.863281 -3.246094 C 3.625 -3.136719 3.429688 -3.027344 3.277344 -2.910156 C 3.117188 -2.785156 2.988281 -2.632812 2.898438 -2.441406 C 2.804688 -2.253906 2.761719 -2.03125 2.761719 -1.773438 C 2.761719 -1.433594 2.835938 -1.1875 2.992188 -1.035156 C 3.148438 -0.882812 3.335938 -0.808594 3.5625 -0.808594 C 3.804688 -0.808594 4 -0.855469 4.15625 -0.953125 C 4.308594 -1.050781 4.445312 -1.171875 4.5625 -1.316406 Z "/>
</g>
<g id="glyph-0-5">
<path d="M 5.222656 -0.300781 C 4.945312 -0.179688 4.644531 -0.0664062 4.328125 0.0273438 C 4.011719 0.125 3.625 0.175781 3.171875 0.175781 C 2.492188 0.175781 1.992188 0.0117188 1.664062 -0.320312 C 1.335938 -0.648438 1.171875 -1.117188 1.171875 -1.730469 L 1.171875 -5.722656 L 0 -5.722656 L 0 -6.433594 L 1.199219 -6.433594 L 1.199219 -8.40625 L 3.308594 -8.40625 L 3.308594 -6.433594 L 5.136719 -6.433594 L 5.136719 -5.722656 L 3.320312 -5.722656 L 3.320312 -2.160156 C 3.320312 -1.652344 3.390625 -1.292969 3.53125 -1.082031 C 3.675781 -0.867188 3.929688 -0.761719 4.292969 -0.761719 C 4.410156 -0.761719 4.574219 -0.769531 4.785156 -0.789062 C 4.992188 -0.804688 5.136719 -0.824219 5.222656 -0.847656 Z "/>
</g>
<g id="glyph-0-6">
</g>
<g id="glyph-0-7">
<path d="M 5.292969 0.253906 C 4.617188 0.253906 3.980469 0.144531 3.390625 -0.0742188 C 2.800781 -0.292969 2.289062 -0.613281 1.847656 -1.03125 C 1.417969 -1.4375 1.082031 -1.945312 0.832031 -2.546875 C 0.585938 -3.148438 0.460938 -3.808594 0.460938 -4.53125 C 0.460938 -5.25 0.585938 -5.910156 0.835938 -6.523438 C 1.085938 -7.132812 1.4375 -7.664062 1.886719 -8.109375 C 2.332031 -8.550781 2.863281 -8.890625 3.484375 -9.128906 C 4.105469 -9.371094 4.769531 -9.492188 5.476562 -9.492188 C 5.988281 -9.492188 6.453125 -9.429688 6.875 -9.304688 C 7.296875 -9.175781 7.652344 -9.035156 7.941406 -8.878906 L 8.347656 -9.238281 L 8.914062 -9.238281 L 8.972656 -5.867188 L 8.398438 -5.867188 C 8.074219 -6.898438 7.683594 -7.652344 7.226562 -8.136719 C 6.773438 -8.621094 6.21875 -8.859375 5.5625 -8.859375 C 4.75 -8.859375 4.128906 -8.5 3.703125 -7.78125 C 3.277344 -7.0625 3.066406 -6.050781 3.066406 -4.753906 C 3.066406 -4.019531 3.140625 -3.390625 3.285156 -2.871094 C 3.429688 -2.351562 3.621094 -1.933594 3.851562 -1.617188 C 4.105469 -1.285156 4.402344 -1.042969 4.746094 -0.890625 C 5.085938 -0.734375 5.464844 -0.65625 5.882812 -0.65625 C 6.488281 -0.65625 7.03125 -0.824219 7.503906 -1.152344 C 7.980469 -1.480469 8.410156 -1.980469 8.800781 -2.648438 L 9.363281 -2.3125 C 9.175781 -1.929688 8.960938 -1.585938 8.722656 -1.285156 C 8.484375 -0.984375 8.210938 -0.726562 7.898438 -0.507812 C 7.554688 -0.269531 7.175781 -0.0820312 6.761719 0.0507812 C 6.347656 0.1875 5.855469 0.253906 5.292969 0.253906 Z "/>
</g>
<g id="glyph-0-8">
<path d="M 7.023438 -5.691406 C 7.347656 -5.390625 7.589844 -5.03125 7.761719 -4.617188 C 7.929688 -4.199219 8.015625 -3.746094 8.015625 -3.261719 C 8.015625 -2.78125 7.929688 -2.324219 7.761719 -1.898438 C 7.597656 -1.46875 7.351562 -1.105469 7.03125 -0.800781 C 6.6875 -0.476562 6.277344 -0.226562 5.804688 -0.0507812 C 5.328125 0.121094 4.785156 0.207031 4.171875 0.207031 C 3.644531 0.207031 3.15625 0.132812 2.710938 -0.0195312 C 2.265625 -0.171875 1.871094 -0.398438 1.53125 -0.703125 C 1.199219 -0.992188 0.941406 -1.351562 0.75 -1.78125 C 0.558594 -2.207031 0.460938 -2.6875 0.460938 -3.214844 C 0.460938 -3.738281 0.546875 -4.199219 0.710938 -4.605469 C 0.878906 -5.011719 1.128906 -5.375 1.464844 -5.691406 C 1.785156 -5.992188 2.183594 -6.230469 2.652344 -6.394531 C 3.125 -6.5625 3.648438 -6.648438 4.230469 -6.648438 C 4.839844 -6.648438 5.375 -6.5625 5.835938 -6.394531 C 6.296875 -6.230469 6.695312 -5.992188 7.023438 -5.691406 M 5.359375 -1.179688 C 5.453125 -1.421875 5.523438 -1.714844 5.570312 -2.0625 C 5.613281 -2.410156 5.636719 -2.816406 5.636719 -3.273438 C 5.636719 -3.578125 5.617188 -3.925781 5.574219 -4.316406 C 5.53125 -4.707031 5.464844 -5.015625 5.378906 -5.242188 C 5.273438 -5.515625 5.128906 -5.730469 4.945312 -5.886719 C 4.761719 -6.042969 4.527344 -6.121094 4.246094 -6.121094 C 3.9375 -6.121094 3.691406 -6.035156 3.503906 -5.867188 C 3.320312 -5.695312 3.179688 -5.476562 3.078125 -5.207031 C 2.988281 -4.960938 2.925781 -4.671875 2.890625 -4.339844 C 2.855469 -4.007812 2.839844 -3.660156 2.839844 -3.300781 C 2.839844 -2.828125 2.855469 -2.4375 2.882812 -2.125 C 2.914062 -1.816406 2.988281 -1.503906 3.105469 -1.191406 C 3.207031 -0.921875 3.347656 -0.710938 3.535156 -0.554688 C 3.722656 -0.398438 3.957031 -0.320312 4.246094 -0.320312 C 4.503906 -0.320312 4.730469 -0.390625 4.914062 -0.539062 C 5.101562 -0.683594 5.25 -0.894531 5.359375 -1.179688 Z "/>
</g>
<g id="glyph-0-9">
<path d="M 8.789062 -0.136719 L 5.578125 0.0507812 L 5.480469 -0.0390625 L 5.480469 -0.636719 L 5.4375 -0.652344 C 5.222656 -0.421875 4.9375 -0.21875 4.574219 -0.046875 C 4.210938 0.121094 3.847656 0.207031 3.480469 0.207031 C 2.605469 0.207031 1.882812 -0.117188 1.3125 -0.769531 C 0.746094 -1.417969 0.460938 -2.261719 0.460938 -3.292969 C 0.460938 -4.210938 0.78125 -4.996094 1.414062 -5.652344 C 2.050781 -6.304688 2.816406 -6.632812 3.71875 -6.632812 C 4.074219 -6.632812 4.410156 -6.59375 4.722656 -6.511719 C 5.03125 -6.433594 5.28125 -6.339844 5.46875 -6.230469 L 5.46875 -8.359375 C 5.46875 -8.519531 5.4375 -8.671875 5.371094 -8.8125 C 5.304688 -8.953125 5.21875 -9.0625 5.109375 -9.140625 C 4.976562 -9.234375 4.808594 -9.304688 4.605469 -9.34375 C 4.40625 -9.386719 4.203125 -9.417969 3.996094 -9.433594 L 3.996094 -9.910156 L 7.519531 -10.078125 L 7.617188 -9.972656 L 7.617188 -1.4375 C 7.617188 -1.273438 7.644531 -1.136719 7.699219 -1.023438 C 7.753906 -0.910156 7.839844 -0.820312 7.960938 -0.753906 C 8.050781 -0.707031 8.183594 -0.671875 8.359375 -0.652344 C 8.535156 -0.628906 8.675781 -0.617188 8.789062 -0.613281 L 8.789062 -0.136719 M 5.46875 -1.296875 L 5.46875 -4.972656 C 5.4375 -5.074219 5.394531 -5.183594 5.34375 -5.304688 C 5.289062 -5.425781 5.214844 -5.542969 5.117188 -5.652344 C 5.03125 -5.742188 4.914062 -5.824219 4.769531 -5.890625 C 4.625 -5.960938 4.460938 -5.996094 4.28125 -5.996094 C 3.847656 -5.996094 3.492188 -5.75 3.214844 -5.261719 C 2.9375 -4.769531 2.800781 -4.078125 2.800781 -3.183594 C 2.800781 -2.832031 2.824219 -2.515625 2.875 -2.234375 C 2.925781 -1.957031 3.011719 -1.703125 3.136719 -1.472656 C 3.261719 -1.242188 3.425781 -1.0625 3.621094 -0.929688 C 3.816406 -0.800781 4.054688 -0.734375 4.332031 -0.734375 C 4.597656 -0.734375 4.816406 -0.785156 4.988281 -0.886719 C 5.160156 -0.992188 5.320312 -1.125 5.46875 -1.296875 Z "/>
</g>
</g>
</defs>
<g fill="rgb(11.764706%, 22.745098%, 37.254902%)" fill-opacity="1">
<use xlink:href="#glyph-0-0" x="30" y="32.226562"/>
<use xlink:href="#glyph-0-1" x="41" y="32.226562"/>
<use xlink:href="#glyph-0-2" x="49" y="32.226562"/>
<use xlink:href="#glyph-0-1" x="58" y="32.226562"/>
<use xlink:href="#glyph-0-3" x="66" y="32.226562"/>
<use xlink:href="#glyph-0-4" x="73" y="32.226562"/>
<use xlink:href="#glyph-0-5" x="81" y="32.226562"/>
<use xlink:href="#glyph-0-1" x="86" y="32.226562"/>
<use xlink:href="#glyph-0-6" x="94" y="32.226562"/>
<use xlink:href="#glyph-0-7" x="97" y="32.226562"/>
<use xlink:href="#glyph-0-8" x="107" y="32.226562"/>
<use xlink:href="#glyph-0-9" x="115" y="32.226562"/>
<use xlink:href="#glyph-0-1" x="124" y="32.226562"/>
</g>
</svg>
