<?xml version="1.0" encoding="UTF-8"?>
<svg xmlns="http://www.w3.org/2000/svg" xmlns:xlink="http://www.w3.org/1999/xlink" width="1920" height="1080" viewBox="0 0 1920 1080">
<defs>
<g>
<g id="glyph-0-0">
<path d="M 11.300781 0 L 7.644531 0 C 7.09375 -0.847656 6.59375 -1.554688 6.152344 -2.121094 C 5.710938 -2.691406 5.144531 -3.40625 4.453125 -4.265625 L 4.113281 -4.265625 L 4.113281 -1.359375 C 4.113281 -1.203125 4.144531 -1.070312 4.199219 -0.964844 C 4.253906 -0.855469 4.367188 -0.765625 4.539062 -0.691406 C 4.617188 -0.65625 4.730469 -0.621094 4.886719 -0.585938 C 5.039062 -0.550781 5.191406 -0.523438 5.34375 -0.507812 L 5.34375 0 L 0.4375 0 L 0.4375 -0.507812 C 0.554688 -0.515625 0.71875 -0.53125 0.933594 -0.546875 C 1.148438 -0.5625 1.300781 -0.589844 1.386719 -0.625 C 1.542969 -0.6875 1.652344 -0.769531 1.710938 -0.878906 C 1.773438 -0.988281 1.804688 -1.125 1.804688 -1.289062 L 1.804688 -7.839844 C 1.804688 -7.992188 1.777344 -8.117188 1.726562 -8.222656 C 1.671875 -8.328125 1.558594 -8.421875 1.386719 -8.503906 C 1.253906 -8.5625 1.089844 -8.613281 0.898438 -8.652344 C 0.707031 -8.691406 0.554688 -8.71875 0.4375 -8.730469 L 0.4375 -9.238281 L 5.507812 -9.238281 L 5.507812 -8.730469 C 5.375 -8.71875 5.210938 -8.699219 5.023438 -8.675781 C 4.835938 -8.652344 4.671875 -8.617188 4.539062 -8.574219 C 4.367188 -8.519531 4.253906 -8.429688 4.199219 -8.308594 C 4.144531 -8.1875 4.113281 -8.050781 4.113281 -7.902344 L 4.113281 -4.792969 L 4.386719 -4.792969 C 4.726562 -5.101562 5.121094 -5.472656 5.574219 -5.90625 C 6.023438 -6.339844 6.375 -6.695312 6.621094 -6.972656 C 6.96875 -7.359375 7.222656 -7.664062 7.386719 -7.890625 C 7.546875 -8.117188 7.628906 -8.3125 7.628906 -8.476562 C 7.628906 -8.550781 7.550781 -8.605469 7.394531 -8.644531 C 7.238281 -8.683594 7 -8.714844 6.679688 -8.730469 L 6.679688 -9.238281 L 10.695312 -9.238281 L 10.695312 -8.730469 C 10.210938 -8.679688 9.804688 -8.589844 9.472656 -8.46875 C 9.144531 -8.34375 8.816406 -8.136719 8.492188 -7.84375 C 8.027344 -7.429688 7.644531 -7.066406 7.34375 -6.761719 C 7.042969 -6.457031 6.65625 -6.066406 6.1875 -5.589844 C 6.601562 -5.082031 7.101562 -4.457031 7.6875 -3.722656 C 8.273438 -2.984375 8.855469 -2.269531 9.4375 -1.570312 C 9.585938 -1.390625 9.753906 -1.21875 9.945312 -1.058594 C 10.132812 -0.894531 10.34375 -0.765625 10.574219 -0.664062 C 10.683594 -0.617188 10.804688 -0.578125 10.945312 -0.554688 C 11.082031 -0.527344 11.203125 -0.511719 11.300781 -0.507812 Z "/>
</g>
<g id="glyph-0-1">
<path d="M 7.375 -1.554688 C 7.222656 -1.308594 7.039062 -1.074219 6.824219 -0.855469 C 6.609375 -0.636719 6.367188 -0.449219 6.09375 -0.292969 C 5.804688 -0.128906 5.507812 -0.00390625 5.210938 0.0820312 C 4.914062 0.164062 4.574219 0.207031 4.1875 0.207031 C 3.542969 0.207031 2.988281 0.117188 2.523438 -0.0664062 C 2.054688 -0.246094 1.671875 -0.492188 1.367188 -0.800781 C 1.0625 -1.109375 0.835938 -1.472656 0.6875 -1.890625 C 0.539062 -2.308594 0.460938 -2.765625 0.460938 -3.253906 C 0.460938 -3.699219 0.542969 -4.121094 0.707031 -4.527344 C 0.867188 -4.933594 1.101562 -5.296875 1.398438 -5.613281 C 1.695312 -5.921875 2.066406 -6.167969 2.515625 -6.359375 C 2.964844 -6.550781 3.46875 -6.648438 4.023438 -6.648438 C 4.632812 -6.648438 5.128906 -6.574219 5.519531 -6.425781 C 5.910156 -6.277344 6.234375 -6.074219 6.492188 -5.8125 C 6.738281 -5.566406 6.917969 -5.273438 7.03125 -4.9375 C 7.144531 -4.601562 7.199219 -4.25 7.199219 -3.878906 L 7.199219 -3.457031 L 2.800781 -3.457031 C 2.800781 -2.566406 2.972656 -1.890625 3.3125 -1.425781 C 3.65625 -0.960938 4.203125 -0.730469 4.949219 -0.730469 C 5.355469 -0.730469 5.722656 -0.839844 6.046875 -1.0625 C 6.375 -1.289062 6.652344 -1.570312 6.882812 -1.914062 L 7.375 -1.554688 M 4.890625 -4.03125 C 4.890625 -4.289062 4.875 -4.558594 4.851562 -4.832031 C 4.824219 -5.105469 4.777344 -5.328125 4.714844 -5.5 C 4.640625 -5.707031 4.539062 -5.859375 4.410156 -5.964844 C 4.28125 -6.066406 4.121094 -6.121094 3.925781 -6.121094 C 3.589844 -6.121094 3.324219 -5.949219 3.125 -5.613281 C 2.925781 -5.273438 2.816406 -4.738281 2.800781 -4.003906 Z "/>
</g>
<g id="glyph-0-2">
<path d="M 7.734375 -5.984375 C 7.539062 -5.953125 7.347656 -5.878906 7.164062 -5.761719 C 6.980469 -5.644531 6.828125 -5.460938 6.707031 -5.214844 C 6.332031 -4.425781 5.949219 -3.582031 5.554688 -2.691406 C 5.160156 -1.800781 4.71875 -0.835938 4.238281 0.203125 C 3.96875 0.785156 3.707031 1.246094 3.457031 1.59375 C 3.207031 1.941406 2.96875 2.210938 2.746094 2.394531 C 2.539062 2.570312 2.332031 2.695312 2.128906 2.773438 C 1.925781 2.851562 1.71875 2.890625 1.511719 2.890625 C 1.097656 2.890625 0.765625 2.777344 0.511719 2.546875 C 0.257812 2.316406 0.128906 2.058594 0.128906 1.769531 C 0.128906 1.648438 0.144531 1.535156 0.171875 1.433594 C 0.199219 1.328125 0.261719 1.21875 0.351562 1.105469 C 0.421875 1.011719 0.527344 0.929688 0.671875 0.863281 C 0.820312 0.796875 0.984375 0.761719 1.164062 0.761719 C 1.40625 0.761719 1.640625 0.847656 1.859375 1.015625 C 2.082031 1.183594 2.3125 1.417969 2.550781 1.71875 C 2.695312 1.574219 2.871094 1.359375 3.082031 1.074219 C 3.292969 0.789062 3.445312 0.496094 3.546875 0.199219 C 3.03125 -0.886719 2.574219 -1.828125 2.171875 -2.621094 C 1.773438 -3.417969 1.328125 -4.304688 0.832031 -5.285156 C 0.726562 -5.496094 0.578125 -5.65625 0.398438 -5.769531 C 0.214844 -5.886719 0.0234375 -5.957031 -0.183594 -5.984375 L -0.183594 -6.457031 L 3.800781 -6.457031 L 3.800781 -5.984375 C 3.65625 -5.980469 3.484375 -5.945312 3.292969 -5.886719 C 3.101562 -5.824219 3.003906 -5.746094 3.003906 -5.652344 C 3.003906 -5.617188 3.011719 -5.578125 3.023438 -5.535156 C 3.035156 -5.496094 3.058594 -5.4375 3.09375 -5.359375 C 3.242188 -5.054688 3.449219 -4.632812 3.722656 -4.09375 C 3.992188 -3.554688 4.308594 -2.925781 4.667969 -2.203125 C 4.9375 -2.816406 5.164062 -3.347656 5.355469 -3.789062 C 5.542969 -4.234375 5.726562 -4.667969 5.902344 -5.097656 C 5.945312 -5.207031 5.972656 -5.292969 5.976562 -5.355469 C 5.984375 -5.417969 5.988281 -5.460938 5.988281 -5.480469 C 5.988281 -5.558594 5.949219 -5.628906 5.875 -5.6875 C 5.796875 -5.746094 5.707031 -5.796875 5.605469 -5.839844 C 5.496094 -5.882812 5.390625 -5.914062 5.292969 -5.9375 C 5.191406 -5.960938 5.109375 -5.972656 5.046875 -5.984375 L 5.046875 -6.457031 L 7.734375 -6.457031 Z "/>
</g>
<g id="glyph-0-3">
</g>
<g id="glyph-0-4">
<path d="M 9.140625 -2.960938 L 8.957031 0 L 0.449219 0 L 0.449219 -0.507812 C 0.601562 -0.519531 0.777344 -0.542969 0.984375 -0.570312 C 1.1875 -0.597656 1.320312 -0.625 1.386719 -0.652344 C 1.542969 -0.710938 1.652344 -0.796875 1.710938 -0.90625 C 1.773438 -1.011719 1.804688 -1.152344 1.804688 -1.320312 L 1.804688 -7.839844 C 1.804688 -7.996094 1.78125 -8.125 1.730469 -8.226562 C 1.683594 -8.328125 1.570312 -8.421875 1.386719 -8.503906 C 1.253906 -8.5625 1.089844 -8.613281 0.902344 -8.648438 C 0.710938 -8.6875 0.5625 -8.714844 0.449219 -8.730469 L 0.449219 -9.238281 L 5.519531 -9.238281 L 5.519531 -8.730469 C 5.382812 -8.71875 5.21875 -8.699219 5.027344 -8.675781 C 4.839844 -8.652344 4.675781 -8.617188 4.539062 -8.574219 C 4.367188 -8.519531 4.253906 -8.429688 4.199219 -8.3125 C 4.144531 -8.191406 4.113281 -8.054688 4.113281 -7.902344 L 4.113281 -1.828125 C 4.113281 -1.542969 4.132812 -1.316406 4.171875 -1.152344 C 4.210938 -0.988281 4.289062 -0.867188 4.402344 -0.789062 C 4.515625 -0.707031 4.671875 -0.652344 4.875 -0.628906 C 5.074219 -0.605469 5.355469 -0.59375 5.710938 -0.59375 C 6.058594 -0.59375 6.394531 -0.613281 6.722656 -0.652344 C 7.050781 -0.695312 7.285156 -0.785156 7.429688 -0.925781 C 7.648438 -1.144531 7.875 -1.457031 8.109375 -1.859375 C 8.339844 -2.261719 8.527344 -2.628906 8.664062 -2.960938 Z "/>
</g>
<g id="glyph-0-5">
<path d="M 4.492188 0 L 0.378906 0 L 0.378906 -0.476562 C 0.492188 -0.484375 0.601562 -0.496094 0.710938 -0.507812 C 0.816406 -0.519531 0.910156 -0.542969 0.988281 -0.574219 C 1.128906 -0.625 1.226562 -0.699219 1.28125 -0.796875 C 1.339844 -0.894531 1.367188 -1.023438 1.367188 -1.183594 L 1.367188 -4.972656 C 1.367188 -5.125 1.332031 -5.257812 1.261719 -5.375 C 1.195312 -5.488281 1.105469 -5.582031 1.003906 -5.652344 C 0.925781 -5.703125 0.804688 -5.753906 0.648438 -5.800781 C 0.488281 -5.847656 0.34375 -5.878906 0.214844 -5.890625 L 0.214844 -6.367188 L 3.40625 -6.535156 L 3.503906 -6.4375 L 3.503906 -1.269531 C 3.503906 -1.117188 3.535156 -0.988281 3.601562 -0.882812 C 3.664062 -0.777344 3.757812 -0.695312 3.878906 -0.644531 C 3.96875 -0.605469 4.0625 -0.570312 4.167969 -0.539062 C 4.269531 -0.511719 4.378906 -0.488281 4.492188 -0.476562 L 4.492188 0 M 3.542969 -8.878906 C 3.542969 -8.550781 3.414062 -8.269531 3.160156 -8.039062 C 2.90625 -7.804688 2.605469 -7.6875 2.257812 -7.6875 C 1.90625 -7.6875 1.605469 -7.804688 1.351562 -8.039062 C 1.097656 -8.269531 0.96875 -8.550781 0.96875 -8.878906 C 0.96875 -9.210938 1.097656 -9.492188 1.351562 -9.726562 C 1.605469 -9.960938 1.90625 -10.078125 2.257812 -10.078125 C 2.609375 -10.078125 2.914062 -9.960938 3.164062 -9.726562 C 3.414062 -9.492188 3.542969 -9.210938 3.542969 -8.878906 Z "/>
</g>
<g id="glyph-0-6">
<path d="M 13.308594 0 L 9.441406 0 L 9.441406 -0.476562 C 9.535156 -0.488281 9.632812 -0.5 9.738281 -0.507812 C 9.839844 -0.515625 9.925781 -0.539062 9.996094 -0.574219 C 10.089844 -0.617188 10.148438 -0.6875 10.175781 -0.789062 C 10.203125 -0.894531 10.214844 -1.023438 10.214844 -1.183594 L 10.214844 -4.226562 C 10.214844 -4.671875 10.136719 -5.007812 9.976562 -5.230469 C 9.816406 -5.453125 9.589844 -5.566406 9.292969 -5.566406 C 9.105469 -5.566406 8.941406 -5.535156 8.792969 -5.476562 C 8.648438 -5.417969 8.515625 -5.347656 8.394531 -5.261719 C 8.265625 -5.167969 8.167969 -5.078125 8.097656 -4.988281 C 8.03125 -4.894531 7.972656 -4.816406 7.921875 -4.753906 L 7.921875 -1.257812 C 7.921875 -1.101562 7.941406 -0.972656 7.976562 -0.875 C 8.015625 -0.777344 8.082031 -0.699219 8.179688 -0.644531 C 8.25 -0.605469 8.328125 -0.570312 8.417969 -0.539062 C 8.503906 -0.511719 8.597656 -0.488281 8.699219 -0.476562 L 8.699219 0 L 5 0 L 5 -0.476562 C 5.082031 -0.484375 5.179688 -0.496094 5.296875 -0.507812 C 5.414062 -0.519531 5.5 -0.542969 5.554688 -0.574219 C 5.644531 -0.621094 5.703125 -0.691406 5.734375 -0.78125 C 5.761719 -0.871094 5.773438 -1.007812 5.773438 -1.183594 L 5.773438 -4.226562 C 5.773438 -4.671875 5.695312 -5.007812 5.535156 -5.230469 C 5.378906 -5.453125 5.148438 -5.566406 4.855469 -5.566406 C 4.667969 -5.566406 4.5 -5.535156 4.355469 -5.476562 C 4.207031 -5.417969 4.074219 -5.347656 3.953125 -5.261719 C 3.828125 -5.167969 3.730469 -5.078125 3.660156 -4.988281 C 3.589844 -4.894531 3.53125 -4.816406 3.484375 -4.753906 L 3.484375 -1.257812 C 3.484375 -1.105469 3.503906 -0.980469 3.542969 -0.878906 C 3.582031 -0.777344 3.648438 -0.699219 3.75 -0.644531 C 3.820312 -0.605469 3.898438 -0.570312 3.988281 -0.539062 C 4.078125 -0.511719 4.171875 -0.488281 4.269531 -0.476562 L 4.269531 0 L 0.371094 0 L 0.371094 -0.476562 C 0.484375 -0.484375 0.59375 -0.496094 0.703125 -0.507812 C 0.8125 -0.519531 0.90625 -0.542969 0.984375 -0.574219 C 1.121094 -0.625 1.21875 -0.699219 1.269531 -0.796875 C 1.320312 -0.894531 1.347656 -1.023438 1.347656 -1.183594 L 1.347656 -4.972656 C 1.347656 -5.113281 1.3125 -5.25 1.238281 -5.378906 C 1.164062 -5.511719 1.074219 -5.617188 0.96875 -5.691406 C 0.890625 -5.742188 0.792969 -5.785156 0.671875 -5.820312 C 0.554688 -5.855469 0.421875 -5.878906 0.28125 -5.890625 L 0.28125 -6.367188 L 3.386719 -6.535156 L 3.484375 -6.4375 L 3.484375 -5.519531 L 3.507812 -5.519531 C 3.628906 -5.628906 3.773438 -5.757812 3.941406 -5.90625 C 4.109375 -6.058594 4.265625 -6.179688 4.414062 -6.269531 C 4.574219 -6.375 4.78125 -6.460938 5.03125 -6.53125 C 5.285156 -6.597656 5.558594 -6.632812 5.859375 -6.632812 C 6.355469 -6.632812 6.765625 -6.527344 7.097656 -6.3125 C 7.429688 -6.097656 7.667969 -5.8125 7.804688 -5.457031 L 7.863281 -5.457031 C 7.992188 -5.574219 8.144531 -5.710938 8.328125 -5.867188 C 8.507812 -6.027344 8.675781 -6.15625 8.828125 -6.25 C 8.996094 -6.359375 9.214844 -6.449219 9.476562 -6.523438 C 9.738281 -6.597656 10.019531 -6.632812 10.320312 -6.632812 C 10.972656 -6.632812 11.480469 -6.441406 11.832031 -6.054688 C 12.1875 -5.667969 12.363281 -5.121094 12.363281 -4.40625 L 12.363281 -1.242188 C 12.363281 -1.082031 12.386719 -0.953125 12.433594 -0.855469 C 12.484375 -0.757812 12.570312 -0.683594 12.695312 -0.632812 C 12.765625 -0.601562 12.851562 -0.570312 12.953125 -0.539062 C 13.054688 -0.511719 13.171875 -0.488281 13.308594 -0.476562 Z "/>
</g>
<g id="glyph-0-7">
<path d="M 5.222656 -0.300781 C 4.945312 -0.179688 4.644531 -0.0664062 4.328125 0.0273438 C 4.011719 0.125 3.625 0.175781 3.171875 0.175781 C 2.492188 0.175781 1.992188 0.0117188 1.664062 -0.320312 C 1.335938 -0.648438 1.171875 -1.117188 1.171875 -1.730469 L 1.171875 -5.722656 L 0 -5.722656 L 0 -6.433594 L 1.199219 -6.433594 L 1.199219 -8.40625 L 3.308594 -8.40625 L 3.308594 -6.433594 L 5.136719 -6.433594 L 5.136719 -5.722656 L 3.320312 -5.722656 L 3.320312 -2.160156 C 3.320312 -1.652344 3.390625 -1.292969 3.53125 -1.082031 C 3.675781 -0.867188 3.929688 -0.761719 4.292969 -0.761719 C 4.410156 -0.761719 4.574219 -0.769531 4.785156 -0.789062 C 4.992188 -0.804688 5.136719 -0.824219 5.222656 -0.847656 Z "/>
</g>
<g id="glyph-0-8">
<path d="M 3.390625 0.222656 C 2.972656 0.222656 2.558594 0.160156 2.15625 0.0351562 C 1.757812 -0.0859375 1.445312 -0.21875 1.222656 -0.359375 L 1.027344 0.0859375 L 0.519531 0.0859375 L 0.4375 -2.34375 L 0.910156 -2.34375 C 0.976562 -2.148438 1.085938 -1.929688 1.238281 -1.683594 C 1.390625 -1.4375 1.5625 -1.21875 1.757812 -1.023438 C 1.960938 -0.828125 2.195312 -0.660156 2.457031 -0.527344 C 2.71875 -0.394531 3 -0.324219 3.300781 -0.324219 C 3.695312 -0.324219 3.988281 -0.402344 4.183594 -0.554688 C 4.375 -0.710938 4.472656 -0.949219 4.472656 -1.269531 C 4.472656 -1.441406 4.429688 -1.585938 4.34375 -1.699219 C 4.253906 -1.8125 4.136719 -1.910156 3.984375 -1.992188 C 3.816406 -2.078125 3.628906 -2.152344 3.425781 -2.214844 C 3.226562 -2.273438 2.976562 -2.347656 2.683594 -2.433594 C 2.386719 -2.523438 2.132812 -2.609375 1.921875 -2.699219 C 1.714844 -2.789062 1.496094 -2.925781 1.269531 -3.117188 C 1.074219 -3.289062 0.917969 -3.492188 0.800781 -3.730469 C 0.683594 -3.96875 0.625 -4.253906 0.625 -4.582031 C 0.625 -5.195312 0.882812 -5.691406 1.394531 -6.066406 C 1.910156 -6.445312 2.585938 -6.632812 3.417969 -6.632812 C 3.8125 -6.632812 4.175781 -6.59375 4.507812 -6.511719 C 4.839844 -6.433594 5.121094 -6.34375 5.34375 -6.25 L 5.480469 -6.632812 L 5.976562 -6.632812 L 6.082031 -4.414062 L 5.625 -4.414062 C 5.472656 -4.867188 5.210938 -5.253906 4.84375 -5.582031 C 4.476562 -5.910156 4.078125 -6.074219 3.652344 -6.074219 C 3.316406 -6.074219 3.054688 -6.003906 2.863281 -5.867188 C 2.671875 -5.726562 2.578125 -5.535156 2.578125 -5.285156 C 2.578125 -4.957031 2.71875 -4.71875 2.996094 -4.570312 C 3.277344 -4.421875 3.667969 -4.285156 4.171875 -4.152344 C 4.945312 -3.953125 5.515625 -3.679688 5.875 -3.335938 C 6.234375 -2.992188 6.414062 -2.550781 6.414062 -2.019531 C 6.414062 -1.304688 6.132812 -0.753906 5.574219 -0.363281 C 5.019531 0.0273438 4.289062 0.222656 3.390625 0.222656 Z "/>
</g>
</g>
</defs>
<g fill="rgb(76.078431%, 25.490196%, 4.705882%)" fill-opacity="1">
<use xlink:href="#glyph-0-0" x="30" y="32.226562"/>
<use xlink:href="#glyph-0-1" x="41" y="32.226562"/>
<use xlink:href="#glyph-0-2" x="49" y="32.226562"/>
<use xlink:href="#glyph-0-3" x="56" y="32.226562"/>
<use xlink:href="#glyph-0-4" x="59" y="32.226562"/>
<use xlink:href="#glyph-0-5" x="68" y="32.226562"/>
<use xlink:href="#glyph-0-6" x="73" y="32.226562"/>
<use xlink:href="#glyph-0-5" x="87" y="32.226562"/>
<use xlink:href="#glyph-0-7" x="92" y="32.226562"/>
<use xlink:href="#glyph-0-8" x="97" y="32.226562"/>
</g>
</svg>
