<?xml version="1.0" encoding="UTF-8"?>
<svg xmlns="http://www.w3.org/2000/svg" xmlns:xlink="http://www.w3.org/1999/xlink" width="1920" height="1080" viewBox="0 0 1920 1080">
<defs>
<g>
<g id="glyph-0-0">
<path d="M 7.773438 0 L 0.714844 0 L 0.714844 -1.179688 C 1.023438 -1.492188 1.363281 -1.777344 1.730469 -2.035156 C 2.097656 -2.292969 2.46875 -2.523438 2.847656 -2.722656 C 3.253906 -2.933594 3.589844 -3.125 3.867188 -3.289062 C 4.140625 -3.457031 4.355469 -3.632812 4.511719 -3.816406 C 4.667969 -3.984375 4.78125 -4.167969 4.847656 -4.367188 C 4.914062 -4.566406 4.949219 -4.792969 4.949219 -5.039062 C 4.949219 -5.589844 4.816406 -5.992188 4.554688 -6.242188 C 4.296875 -6.496094 3.949219 -6.621094 3.519531 -6.621094 C 3.382812 -6.621094 3.253906 -6.609375 3.136719 -6.589844 C 3.015625 -6.570312 2.890625 -6.535156 2.761719 -6.484375 C 2.824219 -6.289062 2.886719 -6.085938 2.949219 -5.878906 C 3.011719 -5.671875 3.039062 -5.4375 3.039062 -5.183594 C 3.039062 -4.875 2.929688 -4.628906 2.707031 -4.445312 C 2.488281 -4.265625 2.203125 -4.171875 1.863281 -4.171875 C 1.535156 -4.171875 1.277344 -4.28125 1.085938 -4.492188 C 0.890625 -4.703125 0.792969 -4.964844 0.792969 -5.265625 C 0.792969 -5.796875 1.101562 -6.253906 1.71875 -6.640625 C 2.335938 -7.027344 3.085938 -7.21875 3.972656 -7.21875 C 4.996094 -7.21875 5.824219 -7.042969 6.453125 -6.691406 C 7.085938 -6.339844 7.402344 -5.773438 7.402344 -4.992188 C 7.402344 -4.589844 7.320312 -4.265625 7.152344 -4.015625 C 6.984375 -3.769531 6.738281 -3.550781 6.414062 -3.367188 C 6.121094 -3.195312 5.800781 -3.058594 5.445312 -2.949219 C 5.09375 -2.839844 4.714844 -2.738281 4.308594 -2.636719 C 3.878906 -2.527344 3.503906 -2.414062 3.1875 -2.292969 C 2.867188 -2.171875 2.585938 -2.023438 2.335938 -1.855469 L 2.335938 -1.785156 L 7.773438 -1.785156 Z "/>
</g>
</g>
</defs>
<g fill="rgb(5.490196%, 62.352941%, 43.137255%)" fill-opacity="1">
<use xlink:href="#glyph-0-0" x="30" y="32.226562"/>
</g>
</svg>
